<?xml version="1.0" encoding="UTF-8"?>
<svg version="1.1" xmlns="http://www.w3.org/2000/svg" width="1000" height="1553">
<path d="M0 0 C24.531095 -0.09360446 49.06216308 -0.16405806 73.59340096 -0.20724869 C84.98469146 -0.22783939 96.37587074 -0.25589307 107.76708984 -0.30175781 C117.70022722 -0.34173265 127.63328401 -0.36745817 137.56649959 -0.37635398 C142.82195255 -0.38155072 148.07717505 -0.39369176 153.33255386 -0.42292023 C158.28852702 -0.45025777 163.2441768 -0.45840823 168.2002182 -0.45243073 C170.01009509 -0.45352281 171.81998384 -0.46136667 173.62979507 -0.4768219 C187.75076467 -0.59140114 199.69549631 1.62449537 212.6875 7.5 C213.4287915 7.83330322 214.17008301 8.16660645 214.93383789 8.51000977 C228.48401587 14.83039956 240.69189112 23.28326406 252 33 C254.29505345 34.78624443 256.60630767 36.54771452 258.9296875 38.296875 C261.46190186 40.37997965 263.70300225 42.65934586 266 45 C267.10008482 46.09133529 268.2017427 47.18108644 269.3046875 48.26953125 C281.86162774 60.71135021 292.60810469 73.84064466 302.77832031 88.28613281 C303.59773932 89.43567747 304.43069287 90.57568511 305.27636719 91.70605469 C308.40666902 95.92682072 310.74168739 100.26538649 313 105 C313.6388969 106.25351961 314.28208374 107.5048626 314.9296875 108.75390625 C323.68395729 125.81806665 330.13238908 142.73643919 332.375 161.875 C332.47200195 162.61580811 332.56900391 163.35661621 332.66894531 164.11987305 C334.28261115 180.36124804 329.8165381 197.43587253 326.875 213.3125 C326.47432025 215.50076785 326.07434904 217.68916555 325.67504883 219.87768555 C325.06103665 223.24280738 324.44663431 226.60785122 323.82997131 229.9724884 C322.4532276 237.48802663 321.10094776 245.00755367 319.76953125 252.53125 C319.59244629 253.53181931 319.41536133 254.53238861 319.23291016 255.5632782 C318.55658133 259.38823474 317.88114046 263.21334617 317.20721436 267.03872681 C315.54462256 276.47060853 313.83906681 285.89001379 312.01953125 295.29296875 C310.61555231 302.56840043 309.33337795 309.85567587 308.13671875 317.16796875 C306.54246332 326.89577236 304.83872419 336.60127221 303.08203125 346.30078125 C302.95207449 347.01849009 302.82211773 347.73619892 302.68822289 348.47565651 C301.8724529 352.97805275 301.05440245 357.48003293 300.23596573 361.98194504 C298.93515502 369.14099155 297.63928715 376.3009351 296.34375 383.4609375 C296.20076792 384.25091818 296.05778584 385.04089886 295.91047096 385.85481834 C292.78387607 403.13561918 289.73006003 420.4289271 286.71606445 437.72973633 C286.54469971 438.70901093 286.37333496 439.68828552 286.19677734 440.69723511 C285.88502964 442.4788476 285.57487622 444.26074034 285.2668457 446.04299927 C284.32819975 451.39921596 283.22355225 456.70166612 282 462 C283.22291748 461.99476318 284.44583496 461.98952637 285.70581055 461.98413086 C290.35228713 461.96568687 294.99876067 461.95442801 299.64526367 461.94506836 C301.63582915 461.94011631 303.62639114 461.93335289 305.61694336 461.92456055 C308.51937735 461.91208485 311.42176235 461.90668082 314.32421875 461.90234375 C315.17827805 461.89718246 316.03233734 461.89202118 316.91227722 461.88670349 C326.95261452 461.88584106 336.97585875 462.48081704 347 463 C346.37006848 476.23029445 345.73582706 489.46037453 345.09605503 502.69019699 C344.79913192 508.83307857 344.50370399 514.97602452 344.21166992 521.11914062 C343.9298818 527.04557529 343.64419644 532.97181032 343.35578728 538.89792633 C343.24634392 541.16091466 343.13831428 543.42397181 343.03170967 545.68709564 C342.88236483 548.85246234 342.72803343 552.01754891 342.57250977 555.18261719 C342.52935135 556.12201141 342.48619293 557.06140564 342.44172668 558.02926636 C342.39828125 558.89300873 342.35483582 559.7567511 342.31007385 560.64666748 C342.27412393 561.39516338 342.238174 562.14365929 342.20113468 562.91483688 C342 565 342 565 341 569 C361.79 569 382.58 569 404 569 C404.88747193 572.54988771 405.10545467 575.14180778 405.0625 578.75 C405.05347656 579.73484375 405.04445313 580.7196875 405.03515625 581.734375 C405.01775391 582.85585937 405.01775391 582.85585937 405 584 C399.94885303 585.52476541 394.94056554 586.65492696 389.75 587.5859375 C388.15492347 587.88007581 386.55987222 588.17435119 384.96484375 588.46875 C382.49534592 588.92049334 380.02553607 589.37037933 377.55517578 589.81738281 C367.9007683 591.56990355 358.43647394 593.53320091 349.00390625 596.25244141 C346 597 346 597 342 597 C342.55316923 624.06070304 342.55316923 624.06070304 345 651 C345.12213867 651.98419922 345.24427734 652.96839844 345.37011719 653.98242188 C348.33994407 677.23767647 353.57167884 700.77466319 363.0625 722.3125 C363.54847656 723.42238281 364.03445313 724.53226563 364.53515625 725.67578125 C365.01855469 726.77277344 365.50195312 727.86976563 366 729 C366.45632813 730.09828125 366.91265625 731.1965625 367.3828125 732.328125 C369.30264007 736.8118714 371.55166698 741.11824541 373.8125 745.4375 C374.22564453 746.24509766 374.63878906 747.05269531 375.06445312 747.88476562 C377.57607496 752.68742001 380.32751326 757.01136684 383.69287109 761.26269531 C385 763 385 763 386.8125 766.3125 C389.7843657 771.73615491 394.01669763 776.30539364 398 781 C398.61359375 781.73863281 399.2271875 782.47726562 399.859375 783.23828125 C403.25610283 787.25047123 406.84204817 790.77540132 410.859375 794.1640625 C412.34012274 795.43404687 413.78656782 796.74472911 415.203125 798.0859375 C429.76723861 811.8302169 448.83870683 823.14106613 468 829 C468.99 829.33 469.98 829.66 471 830 C470.45513109 834.19474419 469.13680772 836.54963671 466.5625 839.875 C459.89558068 848.74823794 453.49554831 857.89351182 448.26953125 867.69921875 C445.38914646 872.91936227 442.13745743 877.93179953 439 883 C434.77553769 889.88617604 430.81402039 896.87865276 427 904 C426.40445312 905.10988281 425.80890625 906.21976563 425.1953125 907.36328125 C422.24360756 912.87648867 419.31215082 918.40000168 416.40625 923.9375 C415.96506836 924.77796875 415.52388672 925.6184375 415.06933594 926.484375 C414.2119727 928.11914014 413.35578629 929.7545232 412.50097656 931.390625 C410.6550677 934.91177476 408.78506126 938.4034576 406.78515625 941.83984375 C405.16218784 944.71288848 404.06235513 947.5121038 402.95703125 950.609375 C401.51470632 954.2122438 399.7277931 957.63048056 397.97387695 961.08984375 C392.20783264 972.48752575 386.59318825 983.93009235 382.1640625 995.921875 C380.93138231 999.18144544 379.57723348 1002.36685617 378.1875 1005.5625 C375.7048558 1011.30002476 373.32552855 1017.07202479 371 1022.875 C370.53823364 1024.02270874 370.53823364 1024.02270874 370.06713867 1025.19360352 C364.57031269 1038.96914227 359.54795598 1052.905477 354.75 1066.9375 C354.47031372 1067.7547052 354.19062744 1068.5719104 353.90246582 1069.41387939 C348.18628676 1086.1566609 342.94153491 1103.01398679 338 1120 C337.70319336 1121.01577118 337.70319336 1121.01577118 337.40039062 1122.05206299 C331.98959206 1140.5712434 327.06000774 1159.13086648 323 1178 C322.77183594 1179.05761536 322.77183594 1179.05761536 322.5390625 1180.13659668 C321.32765 1185.75543072 320.12891952 1191.37689453 318.9375 1197 C318.69723587 1198.1320285 318.69723587 1198.1320285 318.45211792 1199.28692627 C317.27423103 1204.852512 316.12973844 1210.42445588 315 1216 C314.70651672 1217.43743057 314.70651672 1217.43743057 314.40710449 1218.90390015 C310.91134905 1236.12858741 308.19876774 1253.39340293 305.875 1270.8125 C305.70257782 1272.08684906 305.53015564 1273.36119812 305.35250854 1274.67416382 C302.6522443 1294.69712003 300.48856057 1314.69155742 299.26196289 1334.85864258 C299.00633608 1337.92402021 298.5056942 1340.9658348 298 1344 C282.16 1344 266.32 1344 250 1344 C250 1330.6487736 250.00264544 1317.51893177 250.79443359 1304.23193359 C250.88041868 1302.70554706 250.9658221 1301.17912767 251.05070496 1299.65267944 C251.23192804 1296.41552851 251.41710257 1293.17863948 251.60563278 1289.94190598 C251.90686202 1284.76971471 252.198616 1279.59701176 252.4894104 1274.42422485 C252.95312537 1266.19451931 253.42289918 1257.96517305 253.89535964 1249.73596537 C254.83419615 1233.38145272 255.76210461 1217.02631697 256.68626547 1200.67096901 C256.83618421 1198.0190734 256.98639799 1195.3671946 257.13663101 1192.71531677 C258.27013388 1172.68683026 259.35185861 1152.66053332 260.18460083 1132.61687088 C261.1792319 1108.71581327 262.57065547 1084.83586489 263.91418457 1060.95236206 C264.70330799 1046.92310927 265.48195207 1032.89327312 266.2578125 1018.86328125 C266.31539639 1017.82253256 266.31539639 1017.82253256 266.3741436 1016.76075864 C267.75348158 991.82382132 269.04589279 966.88350332 270.25 941.9375 C270.32838458 940.31621224 270.40678411 938.69492521 270.48519897 937.07363892 C270.54253314 935.88798954 270.54253314 935.88798954 270.60102558 934.67838764 C270.78727688 930.82725234 270.97363885 926.97612242 271.16015625 923.125 C271.19548903 922.39469763 271.2308218 921.66439526 271.26722527 920.91196251 C272.01787539 905.4173494 272.83492702 889.92684229 273.6875 874.4375 C273.74852905 873.31213837 273.80955811 872.18677673 273.87243652 871.02731323 C274.04076983 867.93339218 274.21297526 864.83971513 274.38671875 861.74609375 C274.45831459 860.42285095 274.45831459 860.42285095 274.53135681 859.07287598 C274.82215881 854.01028741 275.31583952 849.02501585 276 844 C275.19433594 843.89945313 274.38867188 843.79890625 273.55859375 843.6953125 C269.19788522 842.84327505 265.21619084 841.42933033 261.0625 839.875 C260.22420654 839.56296631 259.38591309 839.25093262 258.5222168 838.92944336 C250.81110921 836.01075653 243.39117184 832.64251102 236 829 C234.73964827 828.38918891 233.47923053 827.77851401 232.21875 827.16796875 C199.79357276 811.32890446 169.35300778 791.78520963 143.09765625 766.9140625 C140.80797317 764.74532061 138.47516949 762.6572702 136.0625 760.625 C123.38287258 749.67441268 112.36797897 737.10427032 102 724 C101.35804688 723.19949219 100.71609375 722.39898438 100.0546875 721.57421875 C89.92997082 708.88945013 80.51807702 695.8274027 72 682 C71.55221191 681.27361328 71.10442383 680.54722656 70.64306641 679.79882812 C64.82759365 670.33186759 59.19246661 660.87888046 54.40234375 650.84765625 C53.0655878 648.02295211 53.0655878 648.02295211 51.50390625 645.55859375 C49.6920252 642.47604287 48.37160328 639.30108665 47 636 C45.95897207 633.64555081 44.91726284 631.29140278 43.875 628.9375 C42.91959451 626.74636817 41.96891937 624.55326602 41.02099609 622.35888672 C40.33787857 620.78062715 39.65067053 619.20413207 38.95947266 617.62939453 C22.21357909 579.2927386 12.75597524 538.29652816 7 497 C6.74694092 495.20079102 6.74694092 495.20079102 6.48876953 493.36523438 C-3.45794157 419.91589295 -0.32736377 343.12008188 -0.20707644 269.13804311 C-0.19227182 259.77187585 -0.18973269 250.40571387 -0.18748413 241.0395366 C-0.18318168 224.35707647 -0.17008356 207.67463668 -0.15087891 190.9921875 C-0.13232114 174.85416765 -0.11826421 158.71615346 -0.10986328 142.578125 C-0.10933783 141.5716164 -0.10881239 140.5651078 -0.10827102 139.52809894 C-0.10565962 134.47522922 -0.10313252 129.42235946 -0.10064721 124.36948967 C-0.08014867 82.91297902 -0.04513695 41.45649071 0 0 Z M31 56 C31 100.22 31 144.44 31 190 C37.51865024 190.76314798 37.51865024 190.76314798 39.8203125 188.42578125 C40.46613281 187.37970703 40.46613281 187.37970703 41.125 186.3125 C43.46381703 182.77939342 45.95311296 179.9667058 49 177 C49.61875 176.195625 50.2375 175.39125 50.875 174.5625 C53.13586024 171.83616853 55.57158207 169.72282132 58.28125 167.4609375 C61.34361786 164.85792482 64.09107528 161.94490299 66.875 159.05078125 C72.84941232 152.92927165 72.84941232 152.92927165 76.5 150.625 C77.325 150.08875 78.15 149.5525 79 149 C79 148.34 79 147.68 79 147 C79.58418701 146.72639648 80.16837402 146.45279297 80.77026367 146.17089844 C82.94458345 145.02910082 84.74077607 143.77173073 86.67578125 142.265625 C116.68160727 119.41327654 153.07246125 103.19453083 191.5 107.625 C219.53177966 112.15727002 244.58242976 124.93275804 266.7421875 142.3828125 C268.80811898 144.1941007 268.80811898 144.1941007 271 144 C271 144.66 271 145.32 271 146 C272.65808345 147.47516321 274.37846047 148.880713 276.125 150.25 C279.44256781 152.89295299 282.62882736 155.4971413 285.5625 158.5625 C286.366875 159.366875 287.17125 160.17125 288 161 C288.66 161 289.32 161 290 161 C290.226875 161.53625 290.45375 162.0725 290.6875 162.625 C292.45570089 165.82460161 294.53670203 168.29037223 297 171 C297.66 171 298.32 171 299 171 C299.2475 171.763125 299.495 172.52625 299.75 173.3125 C301.10995558 176.2364045 302.31585826 177.30004356 305 179 C303.00481542 164.28923608 291.95257102 143.83869567 281.4453125 133.46508789 C280 132 280 132 278.2734375 128.8125 C275.74329878 124.2375863 272.25068994 120.72561052 268.625 117 C267.32406348 115.64723334 266.02456848 114.29307882 264.7265625 112.9375 C264.10007812 112.28338135 263.47359375 111.6292627 262.828125 110.95532227 C260.56097418 108.53042765 258.40069563 106.02810728 256.26416016 103.48803711 C235.55107678 79.10676187 198.76487767 59.95714707 167 57 C150.66217759 55.80814461 134.28444423 55.86573565 117.9140625 55.90234375 C115.67277044 55.90381929 113.43147803 55.90483622 111.19018555 55.90539551 C103.00178501 55.91057751 94.81339192 55.92453824 86.625 55.9375 C68.26875 55.958125 49.9125 55.97875 31 56 Z M76 172 C75.154375 172.639375 74.30875 173.27875 73.4375 173.9375 C66.45490625 179.84584856 61.69816341 187.23160822 57 195 C62.15181063 201.97530374 67.20357437 208.50968682 73.8359375 214.1484375 C76.06138329 216.05251928 78.21451653 218.02273775 80.375 220 C110.14098876 246.36850793 151.75537247 259.16293163 191.06835938 256.87988281 C218.99192695 254.71601306 248.87727199 243.66418098 270 225 C271.35314307 223.34937606 272.68623487 221.68213457 274 220 C274.80953125 219.22011719 275.6190625 218.44023437 276.453125 217.63671875 C279.39290657 214.59323323 281.52764252 211.39296483 283.75 207.8125 C284.34748047 206.86987305 284.34748047 206.86987305 284.95703125 205.90820312 C288.7761246 199.92679175 288.7761246 199.92679175 289 193 C287.37920124 190.63767848 285.85912477 188.70538528 283.9375 186.625 C283.43307373 186.05628174 282.92864746 185.48756348 282.40893555 184.90161133 C281.40383756 183.77013244 280.39296864 182.64374962 279.37597656 181.52294922 C277.64858869 179.61105327 275.98288014 177.64922551 274.3125 175.6875 C253.85136286 152.62659484 224.63844482 136.0715721 193.5625 133.25 C191.37620535 133.13947216 189.18832039 133.05791872 187 133 C185.68386719 132.96003906 184.36773438 132.92007813 183.01171875 132.87890625 C145.84370437 132.11220019 103.36173759 146.11158674 76 172 Z M31 200 C30.9762364 216.21674035 30.95881431 232.43347475 30.94818783 248.6502285 C30.94311428 256.18642143 30.93622095 263.72260321 30.92456055 271.25878906 C30.88037763 300.44137434 30.84640035 329.61887358 31.44921875 358.796875 C31.46928419 359.77485424 31.48934963 360.75283348 31.51002312 361.76044846 C32.894244 431.65473923 32.894244 431.65473923 41 501 C41.14518066 501.8883252 41.29036133 502.77665039 41.43994141 503.69189453 C49.39772075 551.26417867 69.76309005 596.23647553 95 637 C95.556875 637.91136719 96.11375 638.82273437 96.6875 639.76171875 C103.18503856 650.21088533 110.28579123 660.4125838 118 670 C118.70125 671.093125 119.4025 672.18625 120.125 673.3125 C120.74375 674.199375 121.3625 675.08625 122 676 C122.66 676 123.32 676 124 676 C124.27328125 676.58426758 124.5465625 677.16853516 124.828125 677.77050781 C126.75768626 681.44149812 129.41376044 684.52330017 132 687.75 C132.5465625 688.44738281 133.093125 689.14476562 133.65625 689.86328125 C134.1821875 690.52199219 134.708125 691.18070313 135.25 691.859375 C135.72953125 692.46233398 136.2090625 693.06529297 136.703125 693.68652344 C137.13109375 694.1199707 137.5590625 694.55341797 138 695 C138.66 695 139.32 695 140 695 C140.226875 695.53625 140.45375 696.0725 140.6875 696.625 C143.80301731 702.26260274 148.25326473 706.21622333 153.08984375 710.34765625 C155.51971824 712.44957222 157.75755447 714.70005587 160 717 C167.8116196 725.00497652 176.20851284 732.09418693 185 739 C185.99 739.78503906 186.98 740.57007813 188 741.37890625 C218.23026469 765.16580864 254.55117236 785.24781319 293 791 C293.65887207 791.10006348 294.31774414 791.20012695 294.99658203 791.30322266 C303.95643437 792.67468135 303.95643437 792.67468135 313 793 C312.77256104 794.20184937 312.77256104 794.20184937 312.54052734 795.42797852 C311.89875515 799.66906661 311.61547339 803.87415386 311.3515625 808.15234375 C311.29816082 809.01536763 311.24475914 809.87839151 311.18973923 810.76756763 C309.9836996 830.31193311 308.82925978 849.85750526 307.78865433 869.4114151 C306.29710174 897.34997839 304.60296173 925.27389537 302.84799576 953.19696808 C302.2289934 963.05964504 301.61557861 972.92267253 301.00135994 982.78564835 C300.84716262 985.26138903 300.69289026 987.73712503 300.53854179 990.21285629 C298.99112679 1015.0359683 297.49117025 1039.86179672 296.01043701 1064.68896484 C295.03358415 1081.06472006 294.04878433 1097.43956983 292.9829464 1113.80981064 C292.84092575 1115.99119332 292.69943653 1118.17260993 292.55805969 1120.35403442 C292.13076701 1126.93915322 291.69830183 1133.52383638 291.25512695 1140.10791016 C290.11237872 1157.39925772 289.46257461 1174.6792488 289 1192 C289.33 1192 289.66 1192 290 1192 C290.21092285 1191.04561035 290.4218457 1190.0912207 290.63916016 1189.10791016 C293.08006811 1178.06910176 295.53432788 1167.0333032 298 1156 C298.26619141 1154.80793945 298.53238281 1153.61587891 298.80664062 1152.38769531 C308.60852878 1108.68423532 320.25562537 1065.62056864 334 1023 C334.54720703 1021.2984375 334.54720703 1021.2984375 335.10546875 1019.5625 C352.35293129 966.16805659 352.35293129 966.16805659 363.99609375 943.99609375 C365.23793797 941.52690155 366.14131162 938.96033612 367.078125 936.36328125 C370.83848755 926.72336878 375.63497133 917.57860653 380.80322266 908.63085938 C382.62139933 905.48121037 384.35595092 902.32672549 385.953125 899.05859375 C388.09171385 894.72526168 390.53359653 890.61515772 393.0625 886.5 C393.76681152 885.34455688 393.76681152 885.34455688 394.48535156 884.16577148 C398.31831282 877.94515768 402.41225366 871.9301602 406.73461914 866.0390625 C407.89880132 864.41094219 408.9599847 862.71010645 410 861 C408.70146333 857.10439 407.52612153 857.05690423 404 855 C401.63518974 853.17431747 399.30776125 851.30865325 396.98828125 849.42578125 C395.13689119 847.80575085 395.13689119 847.80575085 393 848 C392.74605469 847.40703125 392.49210937 846.8140625 392.23046875 846.203125 C390.86373626 843.75602301 389.48257018 842.50652046 387.3125 840.75 C383.59579975 837.62905498 380.50975926 834.25963519 377.4453125 830.50390625 C376.96835937 830.00761719 376.49140625 829.51132812 376 829 C375.34 829 374.68 829 374 829 C373.731875 828.2575 373.46375 827.515 373.1875 826.75 C372.04723249 824.10938051 370.90619694 822.14447156 369 820 C368.34 820 367.68 820 367 820 C366.75378906 819.30390625 366.50757813 818.6078125 366.25390625 817.890625 C364.80685822 814.55475103 362.96552368 811.76878657 360.9375 808.75 C332.54408609 765.25407345 323.61486359 712.97553519 320 662 C319.90428711 660.70843994 319.80857422 659.41687988 319.70996094 658.08618164 C318.65962021 642.39617024 318.84480623 626.66099778 318.87142944 610.94425964 C318.87503186 608.54124838 318.87662541 606.13824314 318.87768555 603.73522949 C318.88963161 581.93717793 319.07389946 560.15441094 319.71408081 538.36439514 C319.92576979 531.06054826 320.06343808 523.76017002 320.09375 516.453125 C320.10347839 515.25607941 320.10347839 515.25607941 320.11340332 514.03485107 C320.11793871 508.23272728 319.5843648 502.84364802 319 497 C277.42 497.495 277.42 497.495 235 498 C236.65 492.72 238.3 487.44 240 482 C241.0279004 478.02225275 242.01746918 474.06326038 242.9375 470.0625 C243.44921002 467.89062294 243.96092903 465.718748 244.47265625 463.546875 C244.98203695 461.36464543 245.49115572 459.18235471 246 457 C249.30783509 442.87404568 252.80904309 428.81847927 256.58532715 414.81060791 C259.37451326 404.45625452 261.96411294 394.07469199 264.38916016 383.62988281 C267.72360103 369.27392873 271.22583323 354.98074965 275.0625 340.75 C278.02819843 329.74939438 280.81253857 318.72753097 283.38916016 307.62988281 C287.02521697 291.97536482 290.91743136 276.4121627 295.10205078 260.89526367 C297.50812187 251.94048972 299.73902722 242.96114839 301.8359375 233.9296875 C302.65293403 230.42323436 303.51833037 226.93248615 304.4140625 223.4453125 C304.64778564 222.53281738 304.88150879 221.62032227 305.12231445 220.68017578 C305.56902104 218.94549418 306.0203785 217.2120008 306.47729492 215.47998047 C307.48176624 211.56834125 308.28772707 208.0775036 308 204 C304.62359543 207.32582173 301.36072049 210.73353049 298.14355469 214.21337891 C295.68674423 216.8689319 293.21119992 219.50673572 290.73535156 222.14453125 C289.67519721 223.27806714 288.61886651 224.41521436 287.56933594 225.55859375 C260.77553904 254.71476762 221.12047724 270.31313709 182.06201172 272.13720703 C147.69196646 273.39419874 117.79515006 263.34302449 89 245 C87.99710938 244.36449219 86.99421875 243.72898438 85.9609375 243.07421875 C80.04280249 239.22184785 74.34410972 235.09775976 68.6875 230.875 C68.02951416 230.38410889 67.37152832 229.89321777 66.69360352 229.38745117 C62.3159752 226.08417571 58.12740658 222.60973636 54 219 C53.33613281 218.42894531 52.67226563 217.85789063 51.98828125 217.26953125 C48.92503087 214.60614572 45.89701993 211.91446603 42.9296875 209.14453125 C42.39432373 208.64655029 41.85895996 208.14856934 41.30737305 207.63549805 C40.2424193 206.64245075 39.18125538 205.64532077 38.12426758 204.64379883 C35.74773515 202.42952432 34.12272038 201.04090679 31 200 Z " fill="#986D13" transform="translate(349,0)"/>
<path d="M0 0 C8.59611403 -0.26404446 16.97193798 0.18383439 25.5234375 1.0078125 C26.53494873 1.10263916 27.54645996 1.19746582 28.58862305 1.29516602 C31.05937136 1.52720912 33.52979891 1.76221403 36 2 C35.95512451 3.00595215 35.91024902 4.0119043 35.86401367 5.04833984 C35.25736215 18.68607049 34.66820781 32.32454144 34.08682251 45.96337128 C34.027841 47.34692297 33.96881856 48.73047292 33.90975952 50.1140213 C29.18218884 155.53316018 29.18218884 155.53316018 31 261 C31.05381836 262.12390137 31.10763672 263.24780273 31.16308594 264.40576172 C32.67580823 294.18587935 36.38973159 323.99898645 43.29443359 353.01757812 C43.94856511 355.78258523 44.56854913 358.55250508 45.17578125 361.328125 C50.88173915 386.98767464 59.30893216 411.61279875 69 436 C69.34305176 436.87527344 69.68610352 437.75054688 70.03955078 438.65234375 C75.59222451 452.80861085 82.30392283 466.20575751 89.84619141 479.40234375 C91.93895534 483.07084656 93.91323669 486.75654216 95.75 490.5625 C97.46475615 494.08597153 99.42439864 497.13056445 101.7734375 500.2578125 C103.06325031 502.08983961 104.0845146 503.95384079 105.125 505.9375 C112.47438026 519.48069759 122.3619186 532.03677834 132 544 C132.67417969 544.83917969 133.34835938 545.67835938 134.04296875 546.54296875 C139.97030289 553.85226787 146.02891241 561.02891241 152.6875 567.6875 C154.53151181 569.53151181 156.15751415 571.37043157 157.8125 573.375 C160.50649045 576.55200389 163.42544532 579.2228586 166.59765625 581.9140625 C169.05084614 584.04414933 171.42221643 586.24365467 173.79272461 588.46459961 C178.32482926 592.70635922 182.81101765 596.84810655 187.87109375 600.4609375 C190.10056715 602.07270359 192.25945437 603.7638303 194.42138672 605.46459961 C202.00635398 611.40551789 209.87836625 616.82071087 218 622 C218.57911133 622.36947754 219.15822266 622.73895508 219.75488281 623.11962891 C263.48385695 650.73858109 312.83832557 667.43714278 364 674 C364.87817383 674.11569336 365.75634766 674.23138672 366.66113281 674.35058594 C371.10369686 674.93472331 375.54832403 675.48893146 380 676 C379.48316037 682.02316948 376.89512977 686.79767844 374.25 692.125 C373.24717446 694.18285204 372.24594351 696.24148172 371.24609375 698.30078125 C370.71741699 699.38697754 370.18874023 700.47317383 369.64404297 701.59228516 C366.8076661 707.47142805 364.0582644 713.39061695 361.3125 719.3125 C360.76094238 720.50141846 360.20938477 721.69033691 359.64111328 722.9152832 C356.25293131 730.23942185 352.92827732 737.58819457 349.67285156 744.97216797 C346.55711424 752.03307109 343.29916186 759.02322305 340 766 C339.47986328 767.09997314 339.47986328 767.09997314 338.94921875 768.22216797 C337.04750263 772.24147523 335.1432668 776.25958522 333.23828125 780.27734375 C323.37694971 801.07983734 313.69865076 821.96740454 304.0625 842.875 C299.17343259 853.48161188 294.24245035 864.06829861 289.29907227 874.6496582 C285.18853187 883.448916 281.08923583 892.25332104 277 901.0625 C276.48445557 902.17286621 275.96891113 903.28323242 275.43774414 904.42724609 C272.96060747 909.76528414 270.48853971 915.1056121 268.0234375 920.44921875 C264.89976485 927.22039398 261.76465484 933.98622205 258.625 940.75 C258.34076172 941.36238525 258.05652344 941.97477051 257.76367188 942.60571289 C254.526558 949.57872412 251.2825921 956.54826089 248 963.5 C244.45681658 971.01039502 240.94122522 978.53362739 237.4375 986.0625 C237.15317108 986.67318329 236.86884216 987.28386658 236.57589722 987.91305542 C233.31384062 994.92553816 230.10580343 1001.95233287 227.0625 1009.0625 C224.77112819 1014.38823794 222.20550134 1019.42242849 219.34375 1024.4609375 C217.55906038 1027.83317079 216.2337017 1031.31525001 214.95703125 1034.90625 C213.94160971 1037.12774366 212.82230029 1038.39842904 211 1040 C210.10539063 1039.35933594 209.21078125 1038.71867187 208.2890625 1038.05859375 C200.16793248 1032.24625744 200.16793248 1032.24625744 192 1026.5 C187.88130024 1023.62442355 183.77991429 1020.72531101 179.6875 1017.8125 C179.10033203 1017.39613281 178.51316406 1016.97976563 177.90820312 1016.55078125 C174.51853638 1014.13346462 171.22539411 1011.6323573 168 1009 C168.58882876 1005.23568688 169.66283174 1002.40881003 171.51171875 999.0859375 C172.02283203 998.15910156 172.53394531 997.23226562 173.06054688 996.27734375 C173.59744141 995.31957031 174.13433594 994.36179687 174.6875 993.375 C175.20505859 992.44042969 175.72261719 991.50585938 176.25585938 990.54296875 C177.30586576 988.64694228 178.35829649 986.75225647 179.41308594 984.85888672 C180.99613328 982.00696605 182.56151982 979.14606582 184.12109375 976.28125 C186.51578556 971.8825813 188.9356528 967.49902045 191.375 963.125 C194.5389268 957.44537466 197.68644708 951.75700974 200.81640625 946.05859375 C202.18970714 943.55967741 203.56343698 941.06099735 204.9375 938.5625 C205.28196167 937.93604584 205.62642334 937.30959167 205.98132324 936.66415405 C210.27162497 928.8678926 214.62682968 921.11632221 219.125 913.4375 C222.38179408 907.8777332 225.40378879 902.29136353 228.2109375 896.48828125 C231.33429188 890.39842216 234.76567796 884.47857309 238.15576172 878.53417969 C243.07465905 869.90800888 247.8366744 861.20409494 252.5 852.4375 C254.6145079 848.49724961 256.79282173 844.62770445 259.125 840.8125 C260.98292977 837.76296606 262.68608243 834.7098588 264.25 831.5 C267.02228512 825.82128694 270.11546162 820.33293838 273.19946289 814.81982422 C275.73936149 810.27683164 278.23904607 805.71792374 280.6875 801.125 C283.44564174 795.97128914 286.35689253 790.9245327 289.3203125 785.88671875 C293.77713143 778.22720901 297.87583643 770.36586622 302.04101562 762.54541016 C308.24820405 750.89658654 314.69981945 739.39200718 321.18652344 727.89746094 C322.35413553 725.82782264 323.52104503 723.75779066 324.6875 721.6875 C325.06044189 721.02588867 325.43338379 720.36427734 325.81762695 719.68261719 C328.56605806 714.79678847 331.25594824 709.88127424 333.90625 704.94140625 C335 703 335 703 336 702 C335.41436279 701.87995605 334.82872559 701.75991211 334.2253418 701.63623047 C326.81218481 700.11304773 319.40525786 698.5610919 312 697 C310.85144531 696.75942871 309.70289063 696.51885742 308.51953125 696.27099609 C294.74226519 693.36959727 281.27715671 690.14866515 267.93554688 685.63769531 C265.27159868 684.76001712 262.57348627 684.01385723 259.875 683.25 C223.70916112 672.14685711 188.05267826 653.96818804 158 631 C156.95585937 630.20980469 155.91171875 629.41960938 154.8359375 628.60546875 C139.32103062 616.81286069 125.02536989 604.08136182 111.1875 590.375 C110.39923828 589.59979004 109.61097656 588.82458008 108.79882812 588.02587891 C104.11033991 583.34430295 99.8581709 578.50108302 95.81762695 573.24853516 C94.0030665 571.00379348 92.05996544 569.01864506 90 567 C86 562.33333333 86 562.33333333 86 560 C85.34 560 84.68 560 84 560 C82.625 558.3046875 82.625 558.3046875 81 555.875 C78.90100138 552.78104985 76.79762538 549.69865964 74.59765625 546.67578125 C69.00335191 538.98782291 63.90248375 531.15244489 59 523 C58.12832036 521.62289267 57.25378752 520.24758242 56.375 518.875 C53.35339802 514.0424379 50.68177566 509.02682612 48 504 C47.64325195 503.33162109 47.28650391 502.66324219 46.91894531 501.97460938 C45.73550191 499.75503091 44.5546313 497.53410669 43.375 495.3125 C43.0027832 494.6119751 42.63056641 493.9114502 42.24707031 493.18969727 C35.28395963 480.02941807 35.28395963 480.02941807 33.125 474.375 C31.61210526 470.49638182 29.99087759 466.6848709 28.3125 462.875 C1.28336033 399.67152302 -10.97436101 330.55541924 -12 262 C-12.01095703 261.29083435 -12.02191406 260.5816687 -12.03320312 259.85101318 C-12.86916283 203.05646389 -9.91312181 146.3128353 -6.40998173 89.64927864 C-6.08383604 84.37188044 -5.76208785 79.09422793 -5.44287109 73.81640625 C-4.58203285 59.58535549 -3.71620455 45.3546223 -2.83203125 31.125 C-2.7623967 29.99787598 -2.69276215 28.87075195 -2.62101746 27.70947266 C-2.41894261 24.47264371 -2.21055272 21.23628785 -2 18 C-1.9211557 16.75057617 -1.8423114 15.50115234 -1.76107788 14.21386719 C-1.67838654 12.96508789 -1.59569519 11.71630859 -1.51049805 10.4296875 C-1.43679489 9.29515137 -1.36309174 8.16061523 -1.28715515 6.99169922 C-1.0516772 4.53839414 -0.69030576 2.35681013 0 0 Z " fill="#976D12" transform="translate(117,298)"/>
<path d="M0 0 C7.5975948 -0.15318589 15.06044887 0.3198338 22.625 1 C23.72457031 1.09539062 24.82414062 1.19078125 25.95703125 1.2890625 C28.63837982 1.52222324 31.31932221 1.7592704 34 2 C34.19297203 10.63988391 33.51172734 19.16744322 32.83169556 27.77087402 C29.68328895 68.38917744 28.80414823 108.91947081 28.75457382 149.64457703 C28.75008091 152.69506842 28.74237923 155.74553747 28.73403931 158.79602051 C28.68555721 179.31679108 28.84512252 199.79608986 29.90625 220.29296875 C29.96609699 221.46321972 29.96609699 221.46321972 30.02715302 222.65711212 C30.83517794 238.02373544 32.3223738 253.31306235 34.39501953 268.56054688 C34.49389465 269.28798096 34.59276978 270.01541504 34.69464111 270.76489258 C34.79540955 271.50247803 34.89617798 272.24006348 35 273 C35.15308624 274.13151489 35.15308624 274.13151489 35.30926514 275.28588867 C39.47504004 305.9117947 45.13546711 336.74930369 55.3203125 366.00927734 C56.02214433 368.06485807 56.67199232 370.13157668 57.3125 372.20703125 C66.34510571 401.10549782 79.87133352 430.45171617 97.85546875 454.953125 C100 458 100 458 100 460 C100.66 460 101.32 460 102 460 C103.33984375 461.73046875 103.33984375 461.73046875 104.9375 464.1875 C107.96080063 468.6398818 111.20553949 472.78080107 114.6875 476.875 C115.1508374 477.4218042 115.6141748 477.9686084 116.09155273 478.53198242 C118.09480715 480.87097377 120.11864199 483.11486611 122.33203125 485.2578125 C124 487 124 487 124 489 C124.556875 489.226875 125.11375 489.45375 125.6875 489.6875 C128.66159588 491.37550036 130.72008865 493.46676517 133 496 C133 496.66 133 497.32 133 498 C133.59425781 498.26425781 134.18851563 498.52851562 134.80078125 498.80078125 C137.08102587 500.04418284 138.43065519 501.29184276 140.1875 503.1875 C144.80091339 507.93892149 149.99767734 511.82556033 155.3515625 515.703125 C156.08117187 516.23421875 156.81078125 516.7653125 157.5625 517.3125 C158.22378906 517.78300781 158.88507813 518.25351562 159.56640625 518.73828125 C160.03949219 519.15464844 160.51257813 519.57101562 161 520 C161 520.66 161 521.32 161 522 C159.90498169 522.46055786 159.90498169 522.46055786 158.7878418 522.93041992 C155.42038069 524.34783597 152.05393741 525.76765444 148.6875 527.1875 C147.53958984 527.67025391 146.39167969 528.15300781 145.20898438 528.65039062 C138.82695582 531.34422137 132.50651078 534.1126972 126.26074219 537.1105957 C123.11992834 538.34623122 121.12695808 538.22027633 118 537 C115.625 535.5625 115.625 535.5625 114 534 C114 533.34 114 532.68 114 532 C113.43539062 531.75378906 112.87078125 531.50757813 112.2890625 531.25390625 C109.60104072 529.78145746 107.62682844 528.01695721 105.375 525.9375 C101.88615673 522.73125817 98.37069063 519.56653481 94.8125 516.4375 C91.07264488 513.07986277 87.69831144 509.57832767 84.47265625 505.7265625 C83.02269741 503.96467203 83.02269741 503.96467203 81.30859375 502.3984375 C80 501 80 501 80 499 C79.01 498.67 78.02 498.34 77 498 C75.60546875 496.43359375 75.60546875 496.43359375 74.1875 494.4375 C73.6615625 493.70789063 73.135625 492.97828125 72.59375 492.2265625 C72.0678125 491.49179687 71.541875 490.75703125 71 490 C70.0650067 488.76892548 69.12751624 487.53974342 68.1875 486.3125 C57.93956055 472.62189339 48.38203994 458.44202232 41 443 C40.0029857 440.98750817 38.99741835 438.97946553 37.98999023 436.97216797 C36.94881815 434.8975523 35.91380264 432.81993911 34.87890625 430.7421875 C33.80326528 428.58876178 32.71096916 426.45076135 31.58984375 424.3203125 C28.02598357 417.51345415 25.40117375 410.41085823 22.7956543 403.19677734 C22.22721983 401.62734706 21.65245327 400.06020434 21.07348633 398.49462891 C2.94103885 349.2786211 -5.98660025 297.1741968 -10 245 C-10.06380859 244.18595703 -10.12761719 243.37191406 -10.19335938 242.53320312 C-10.60221674 237.02565393 -10.82636998 231.51951505 -11 226 C-11.02084656 225.34713013 -11.04169312 224.69426025 -11.06317139 224.02160645 C-12.30314587 184.9180863 -12.30314587 184.9180863 -12 167 C-11.98356445 165.99247681 -11.98356445 165.99247681 -11.96679688 164.96459961 C-11.04899348 109.6609071 -6.18970098 54.95131479 0 0 Z " fill="#986D13" transform="translate(200,292)"/>
<path d="M0 0 C11.08088291 -0.41295216 21.99566626 0.83709121 33 2 C33.06237646 13.57863036 32.91444794 25.13417531 32.57220459 36.7076416 C32.13256407 51.80704521 31.75508462 66.89371435 32 82 C32.01788574 83.21316895 32.03577148 84.42633789 32.05419922 85.67626953 C32.80901822 132.97094645 36.28336696 180.64086412 46 227 C46.22268555 228.08812988 46.44537109 229.17625977 46.67480469 230.29736328 C54.41838296 267.90668877 66.1909873 303.49026587 83 338 C83.59820557 339.23387451 83.59820557 339.23387451 84.20849609 340.49267578 C93.5858839 359.76043759 103.93883912 379.15381859 116.9296875 396.25 C120.33544138 400.77386931 123.54581218 405.43681692 126.78955078 410.07763672 C129.41667799 413.81888138 132.09497751 417.46598826 135 421 C138 424.75 138 424.75 138 427 C138.66 427 139.32 427 140 427 C141.32421875 428.42578125 141.32421875 428.42578125 142.6875 430.3125 C143.37392578 431.23482422 143.37392578 431.23482422 144.07421875 432.17578125 C144.53248047 433.07876953 144.53248047 433.07876953 145 434 C144 437 144 437 141.99609375 438.17578125 C140.72958984 438.73845703 140.72958984 438.73845703 139.4375 439.3125 C135.2155618 441.31268065 131.73569685 443.57499557 128.07421875 446.44921875 C122.80215822 450.39085346 117.16021199 453.68034646 111 456 C99.95658029 441.02248684 99.95658029 441.02248684 94.8046875 433.578125 C93.43107183 431.61581691 92.04140805 429.67133351 90.6328125 427.734375 C85.79357512 421.0674149 81.2457774 414.33322371 76.9921875 407.26953125 C75.27439239 404.45032633 73.50510376 401.6822084 71.69677734 398.92138672 C63.94227213 387.06764241 57.22071191 374.72100637 51 362 C50.52046875 361.0615625 50.0409375 360.123125 49.546875 359.15625 C45.33920075 350.91806673 41.54290063 342.54095145 38 334 C37.62858887 333.10603516 37.25717773 332.21207031 36.87451172 331.29101562 C18.44942245 286.4181045 8.89254984 238.98621927 3 191 C2.91383423 190.310271 2.82766846 189.62054199 2.7388916 188.90991211 C1.58076606 179.6230455 0.68530563 170.33342795 0 161 C-0.05113953 160.30555786 -0.10227905 159.61111572 -0.15496826 158.89562988 C-2.03481048 132.84962322 -2.1835637 106.7874182 -2.1875 80.6875 C-2.18802242 79.91041561 -2.18854485 79.13333122 -2.1890831 78.33269882 C-2.20522972 52.22576144 -2.146731 26.03482272 0 0 Z " fill="#986E14" transform="translate(276,344)"/>
<path d="M0 0 C91.8122207 -1.95275904 91.8122207 -1.95275904 112.98144531 16.5703125 C114.26269531 18.06640625 114.26269531 18.06640625 114.38769531 20.44140625 C112.47814552 24.89702242 108.40388805 27.2018651 104.03271484 28.96679688 C74.21461772 38.42591189 43.12040623 38.70452677 12.1885376 38.51593018 C8.44398105 38.49985492 4.69967181 38.51004202 0.95510769 38.51966 C-69.65658742 38.6644893 -69.65658742 38.6644893 -91.92480469 25.12890625 C-94.12333363 22.62713194 -94.9009332 21.42079085 -94.73730469 18.06640625 C-80.89291054 1.83854498 -45.09516564 2.60399051 -25.73730469 1.06640625 C-17.16184169 0.46061057 -8.59226208 0.20844589 0 0 Z " fill="#986E14" transform="translate(502.7373046875,1514.93359375)"/>
<path d="M0 0 C1.03447266 -0.01836914 1.03447266 -0.01836914 2.08984375 -0.03710938 C3.89477494 -0.04238695 5.69917842 0.06565542 7.5 0.1875 C9.90254667 2.59004667 9.67193065 3.29979083 9.9375 6.5625 C10.30471909 9.02365186 10.30471909 9.02365186 11.5 11.1875 C14.98072094 13.25470185 18.58275041 14.24466629 22.5 15.1875 C23.22574219 15.4246875 23.95148438 15.661875 24.69921875 15.90625 C25.29347656 15.9990625 25.88773438 16.091875 26.5 16.1875 C27.304375 15.5275 28.10875 14.8675 28.9375 14.1875 C31.5 12.1875 31.5 12.1875 33.875 12 C38.8716772 14.26040159 42.54360728 18.23313227 44.9375 23.125 C45.123125 23.805625 45.30875 24.48625 45.5 25.1875 C44.654375 25.909375 43.80875 26.63125 42.9375 27.375 C40.27153008 29.8509371 40.27153008 29.8509371 40.4375 32.4375 C40.788125 33.345 41.13875 34.2525 41.5 35.1875 C41.71785156 35.92871094 41.93570313 36.66992188 42.16015625 37.43359375 C43.04319523 40.00056752 43.88146554 42.00182409 45.5 44.1875 C48.469823 45.50337604 51.29881825 45.82387692 54.5 46.1875 C55.5 47.1875 55.5 47.1875 55.59765625 50.78515625 C55.5909822 52.27346867 55.57902183 53.76176432 55.5625 55.25 C55.55798828 56.00861328 55.55347656 56.76722656 55.54882812 57.54882812 C55.5370068 59.42841871 55.51907078 61.30796899 55.5 63.1875 C51.62315913 64.38037411 48.58378077 65.1875 44.5 65.1875 C44.396875 66.05375 44.29375 66.92 44.1875 67.8125 C43.5 71.1875 43.5 71.1875 41.8125 74.3125 C40.19782672 77.02595798 40.19782672 77.02595798 41.125 79.375 C42.43465507 81.23596611 42.43465507 81.23596611 44.1875 82.625 C45.5 84.1875 45.5 84.1875 45.34765625 86.48046875 C44.28707835 89.86747558 42.73900334 91.54877146 40.25 94.0625 C39.48171875 94.86429687 38.7134375 95.66609375 37.921875 96.4921875 C35.5 98.1875 35.5 98.1875 32.828125 98.05078125 C30.5 97.1875 30.5 97.1875 28.5 95.5 C27.84 95.066875 27.18 94.63375 26.5 94.1875 C24.80919705 94.79033297 23.14482578 95.46863258 21.5 96.1875 C20.64019531 96.43628906 19.78039062 96.68507813 18.89453125 96.94140625 C16.16462756 97.79630801 13.90501245 98.62725895 11.5 100.1875 C10.09095767 103.16214492 9.80931031 105.94303226 9.5 109.1875 C8.5 110.1875 8.5 110.1875 4.90234375 110.28515625 C3.41403133 110.2784822 1.92573568 110.26652183 0.4375 110.25 C-0.32111328 110.24548828 -1.07972656 110.24097656 -1.86132812 110.23632812 C-3.74091871 110.2245068 -5.62046899 110.20657078 -7.5 110.1875 C-8.63757499 107.50927227 -9.48563531 105.48915853 -9.625 102.5625 C-10.23920618 100.08521761 -10.23920618 100.08521761 -12.19921875 99.27734375 C-13.6213408 98.75423416 -15.05737221 98.26764236 -16.50390625 97.81640625 C-18.5 97.1875 -18.5 97.1875 -20.75 95.9375 C-22.49178662 95.02599856 -22.49178662 95.02599856 -24.5 95.375 C-26.61479768 96.11492127 -26.61479768 96.11492127 -28.4375 97.8125 C-30.5 99.1875 -30.5 99.1875 -32.82421875 99.0390625 C-36.18476399 97.96957511 -37.87687181 96.41105644 -40.375 93.9375 C-41.17679687 93.16921875 -41.97859375 92.4009375 -42.8046875 91.609375 C-44.5 89.1875 -44.5 89.1875 -44.38671875 86.56640625 C-43.27500575 83.58388107 -41.59868725 81.55698561 -39.5 79.1875 C-39.8609375 78.42824219 -40.221875 77.66898437 -40.59375 76.88671875 C-41.0578125 75.89285156 -41.521875 74.89898437 -42 73.875 C-42.4640625 72.88886719 -42.928125 71.90273437 -43.40625 70.88671875 C-44.5 68.1875 -44.5 68.1875 -44.5 65.1875 C-45.12648438 65.12691406 -45.75296875 65.06632812 -46.3984375 65.00390625 C-47.62433594 64.87822266 -47.62433594 64.87822266 -48.875 64.75 C-50.09316406 64.62818359 -50.09316406 64.62818359 -51.3359375 64.50390625 C-53.5 64.1875 -53.5 64.1875 -55.5 63.1875 C-56.80822346 57.88635101 -56.69105606 52.49311336 -55.5 47.1875 C-53.11026545 44.79776545 -52.37171094 44.98951962 -49.125 44.6875 C-46.67531814 44.31180367 -46.67531814 44.31180367 -44.5 43.1875 C-41.85890685 39.18056449 -40.5 34.97883003 -40.5 30.1875 C-41.5209375 28.7334375 -41.5209375 28.7334375 -42.5625 27.25 C-44.5 24.1875 -44.5 24.1875 -44.5625 22.1875 C-42.2642378 17.8613594 -38.87238528 13.51032968 -34.5 11.1875 C-31.40846167 11.34207692 -29.90816154 11.85586875 -27.5 13.8125 C-25.58695893 15.45917817 -25.58695893 15.45917817 -23.23828125 14.87109375 C-20.37714092 14.15682905 -17.52940165 13.41251492 -14.6875 12.625 C-13.22376953 12.22087891 -13.22376953 12.22087891 -11.73046875 11.80859375 C-10.99441406 11.60363281 -10.25835938 11.39867187 -9.5 11.1875 C-9.5 7.8875 -9.5 4.5875 -9.5 1.1875 C-6.46576019 -0.3296199 -3.32495206 0.00310743 0 0 Z M-21.5 39.1875 C-25.44412961 45.41633883 -27.40382852 51.76592216 -26.5 59.1875 C-24.47841526 66.56917229 -21.08390657 73.28494912 -14.4765625 77.46875 C-7.1094773 81.30292074 0.0076603 82.43294646 8.0625 80 C16.01316172 77.04416019 20.66558027 72.76127121 24.5 65.1875 C26.67731634 58.65555099 26.83928924 49.9729696 23.8125 43.6875 C23.0814931 42.49547481 22.31149731 41.32625689 21.5 40.1875 C20.7575 39.115 20.015 38.0425 19.25 36.9375 C13.6561361 31.3436361 7.54340794 29.53016169 -0.1875 28.875 C-8.34467819 29.01351812 -16.21896661 33.03565791 -21.5 39.1875 Z " fill="#111111" transform="translate(532.5,137.8125)"/>
<path d="M0 0 C3.16165578 0.30111007 3.64475329 0.86158542 5.625 3.25 C7.13054123 6.27212014 8.21836969 9.45497619 9.375 12.625 C9.70371094 13.47578125 10.03242187 14.3265625 10.37109375 15.203125 C13.32887698 23.21534792 13.32887698 23.21534792 11.625 27.25 C8.15618708 28.98440646 4.60258546 28.52281455 0.9375 27.5 C-11.85479162 26.53454403 -28.2364444 38.38745963 -38.921875 44.8046875 C-41.03859164 46.05179762 -43.16244988 47.18508102 -45.375 48.25 C-30.01727355 51.6628281 -7.80454855 49.69988417 6.625 43.25 C8.70951533 41.39305184 10.00411442 39.55061179 11.625 37.25 C14.4375 36.875 14.4375 36.875 16.625 37.25 C20.8830096 45.15773211 25.40559523 54.06499617 24.625 63.25 C22.625 65.25 22.625 65.25 20.125 65.5 C17.625 65.25 17.625 65.25 15.625 63.25 C1.5708961 62.76537573 -12.83395482 74.08283381 -24.375 81.25 C-25.27089844 81.80429688 -26.16679688 82.35859375 -27.08984375 82.9296875 C-28.85639125 84.02873462 -30.61679025 85.13766322 -32.375 86.25 C-15.27498681 89.50714537 3.8019062 87.14355446 20.625 83.25 C20.90601562 82.12851563 21.18703125 81.00703125 21.4765625 79.8515625 C22.625 76.25 22.625 76.25 25 74.625 C27.625 74.25 27.625 74.25 29.61328125 75.296875 C32.34225965 77.94636859 33.18606265 80.54838448 34.4375 84.125 C34.87707031 85.33929687 35.31664063 86.55359375 35.76953125 87.8046875 C36.61461571 91.20817836 36.77043799 92.97476325 35.625 96.25 C33.8125 97.6875 33.8125 97.6875 31.625 98.25 C31.00665283 97.93544861 30.38830566 97.62089722 29.7512207 97.29681396 C24.01405146 94.47220179 16.08140021 96.45809208 9.9375 97.234375 C0.09084697 98.36583943 -9.67194858 98.55592505 -19.57568359 98.51074219 C-22.4009289 98.4999005 -25.22555349 98.51077923 -28.05078125 98.5234375 C-49.79359181 98.54070409 -49.79359181 98.54070409 -57.5 94.6875 C-59.83422185 91.65301159 -60.62506969 89.41971154 -60.79296875 85.6015625 C-59.78582534 79.93520426 -54.89627872 77.01127604 -50.43603516 73.89550781 C-43.26920709 69.02803026 -35.92504767 64.49628174 -28.375 60.25 C-29.344375 60.26160156 -30.31375 60.27320313 -31.3125 60.28515625 C-64.87668773 60.56830918 -64.87668773 60.56830918 -72.0859375 54.90625 C-74.16888155 52.22998249 -74.2216622 50.03995279 -74.09765625 46.71875 C-71.77016893 38.76755006 -61.65820273 33.86855373 -54.85546875 30.109375 C-53.70691406 29.49578125 -52.55835937 28.8821875 -51.375 28.25 C-50.0168041 27.50543263 -48.65873899 26.76062665 -47.30078125 26.015625 C-40.13217477 22.13148365 -32.9170577 18.45752542 -25.4765625 15.1171875 C-23.7123999 14.32380981 -23.7123999 14.32380981 -21.91259766 13.5144043 C-19.58786114 12.47813976 -17.25690009 11.45570748 -14.91943359 10.44848633 C-13.31962646 9.73728638 -13.31962646 9.73728638 -11.6875 9.01171875 C-10.73488281 8.59881592 -9.78226563 8.18591309 -8.80078125 7.76049805 C-5.93130233 5.97371604 -4.90535664 4.2223534 -3.375 1.25 C-2.375 0.25 -2.375 0.25 0 0 Z " fill="#151515" transform="translate(73.375,1154.75)"/>
<path d="M0 0 C3.4375 0.0625 3.4375 0.0625 7 1 C7.63035156 2.16402344 7.63035156 2.16402344 8.2734375 3.3515625 C10.57400093 6.88048106 13.40370029 7.85112068 17.1875 9.3125 C18.63691509 9.90913316 20.08479396 10.50950964 21.53125 11.11328125 C22.27246094 11.42088379 23.01367188 11.72848633 23.77734375 12.04541016 C29.996266 14.7163225 35.98946605 17.89536596 42 21 C43.14597656 21.5878125 44.29195312 22.175625 45.47265625 22.78125 C52.98664182 26.72183838 60.11517868 31.0371913 67 36 C68.36125 36.95712891 68.36125 36.95712891 69.75 37.93359375 C75.56411251 42.4486155 75.56411251 42.4486155 76.7265625 46.5859375 C76.95728689 50.72683319 76.63510539 53.15319281 74.125 56.5 C65.45320143 60.66246331 55.3088137 60.55410453 45.875 61.125 C44.52339794 61.21162452 43.17183489 61.29886 41.8203125 61.38671875 C38.54720636 61.59713272 35.27384126 61.80141123 32 62 C33.13953125 62.5465625 34.2790625 63.093125 35.453125 63.65625 C40.08818076 65.97581976 44.41154573 68.67191347 48.75 71.5 C49.86181641 72.20962891 49.86181641 72.20962891 50.99609375 72.93359375 C54.6805994 75.32157676 58.16149856 77.59379827 61 81 C61 81.66 61 82.32 61 83 C61.66 83 62.32 83 63 83 C63.31469649 91.18210863 63.31469649 91.18210863 61 94 C54.16344413 97.54975016 47.71407423 98.15513639 40.12890625 98.16796875 C39.00239151 98.174049 39.00239151 98.174049 37.8531189 98.18025208 C35.42286896 98.18968329 32.99276573 98.18964986 30.5625 98.1875 C29.32054367 98.18858765 29.32054367 98.18858765 28.05349731 98.18969727 C15.34334941 98.18846687 2.85266183 97.51738298 -9.79248047 96.20507812 C-16.80124567 95.55396523 -22.47965895 95.37223714 -29 98 C-31.25 97.3125 -31.25 97.3125 -33 96 C-34.16119546 92.51641362 -33.79562413 91.61721622 -32.671875 88.21875 C-32.21361328 86.83236328 -32.21361328 86.83236328 -31.74609375 85.41796875 C-31.41738281 84.45503906 -31.08867188 83.49210937 -30.75 82.5 C-30.43675781 81.53707031 -30.12351562 80.57414062 -29.80078125 79.58203125 C-29.49011719 78.65777344 -29.17945313 77.73351563 -28.859375 76.78125 C-28.57545898 75.93626953 -28.29154297 75.09128906 -27.99902344 74.22070312 C-26.94887065 71.88634591 -25.98532026 70.59784834 -24 69 C-21.5625 68.4375 -21.5625 68.4375 -19 69 C-18.443125 69.94875 -17.88625 70.8975 -17.3125 71.875 C-14.4184217 75.78591662 -12.64953523 75.96111831 -8.0234375 76.67578125 C-7.02570312 76.78277344 -6.02796875 76.88976563 -5 77 C-4.35208496 77.08612549 -3.70416992 77.17225098 -3.03662109 77.26098633 C5.32987366 78.27153113 13.71424575 78.11041165 22.125 78.0625 C23.66926938 78.0574735 25.21354034 78.05291264 26.7578125 78.04882812 C30.50524187 78.03791697 34.25261049 78.02071614 38 78 C27.93346053 71.86879588 17.8763292 65.90469544 6.8125 61.75 C6.07281982 61.46310303 5.33313965 61.17620605 4.57104492 60.88061523 C-0.92765302 58.93217028 -6.18178243 58.42759842 -12 59 C-12.33 59.33 -12.66 59.66 -13 60 C-16 60.125 -16 60.125 -19 60 C-20 59 -20 59 -20.23828125 55.98828125 C-19.95869889 51.30871429 -18.79058114 47.5571278 -17.1875 43.1875 C-16.92646484 42.42501953 -16.66542969 41.66253906 -16.39648438 40.87695312 C-14.3835747 35.25571646 -14.3835747 35.25571646 -11 33 C-8.5625 32.5 -8.5625 32.5 -6 33 C-5.443125 33.94875 -4.88625 34.8975 -4.3125 35.875 C-1.32474497 39.9125068 0.51230219 39.83068506 5.25808716 40.64907837 C9.3936418 41.17836419 13.45634165 41.26723604 17.62109375 41.23046875 C18.9209597 41.22978142 18.9209597 41.22978142 20.24708557 41.2290802 C22.05788564 41.2260863 23.8686838 41.21828737 25.67944336 41.20581055 C28.45500746 41.18738377 31.23024004 41.18530248 34.00585938 41.18554688 C35.77344039 41.18063673 37.54101915 41.17481063 39.30859375 41.16796875 C40.13669052 41.16685593 40.96478729 41.1657431 41.81797791 41.16459656 C45.12721262 41.1371181 47.8391828 41.05360573 51 40 C50.39414062 39.63648438 49.78828125 39.27296875 49.1640625 38.8984375 C48.32617188 38.39570312 47.48828125 37.89296875 46.625 37.375 C45.696875 36.82199219 44.76875 36.26898437 43.8125 35.69921875 C42.13145297 34.68358617 40.46057505 33.65033704 38.8125 32.58203125 C33.07545223 28.9246633 27.03467922 25.99058014 20.875 23.125 C20.02760254 22.71918701 19.18020508 22.31337402 18.30712891 21.89526367 C12.92963943 19.45099797 8.91512791 18.35005809 3 19 C1.62804426 20.29355827 0.28817344 21.62298702 -1 23 C-5.3 22.7 -5.3 22.7 -7 21 C-6.65305149 13.71408138 -5.36119716 5.36119716 0 0 Z " fill="#171717" transform="translate(924,1155)"/>
<path d="M0 0 C21.28631757 4.34881757 21.28631757 4.34881757 24.375 7.4375 C24.6875 9.8125 24.6875 9.8125 24.375 12.4375 C22.5625 14.25 22.5625 14.25 20.375 15.4375 C19.385 15.4375 18.395 15.4375 17.375 15.4375 C14.66548449 31.53331238 13.99394705 47.12843377 14.375 63.4375 C14.95616577 62.66043701 14.95616577 62.66043701 15.54907227 61.86767578 C17.83721841 58.81186385 20.12558641 55.75917361 22.46484375 52.7421875 C29.59985094 43.35957762 37.39769088 31.69057751 37.375 19.4375 C36.715 18.7775 36.055 18.1175 35.375 17.4375 C35.125 14.9375 35.125 14.9375 35.375 12.4375 C37.375 10.4375 37.375 10.4375 39.18530273 10.37084961 C45.08146336 11.13017868 50.7114628 12.41412313 56.4375 14 C57.30310547 14.23396484 58.16871094 14.46792969 59.06054688 14.70898438 C61.16697695 15.2792334 63.27122889 15.85751834 65.375 16.4375 C65.87 19.9025 65.87 19.9025 66.375 23.4375 C65.80910156 23.65664062 65.24320312 23.87578125 64.66015625 24.1015625 C63.92667969 24.41867187 63.19320312 24.73578125 62.4375 25.0625 C61.70660156 25.36414062 60.97570312 25.66578125 60.22265625 25.9765625 C57.51219248 28.1197199 57.77320253 30.05834691 57.375 33.4375 C57.28557564 35.70179235 57.24438755 37.96831858 57.2421875 40.234375 C57.24089844 41.5234375 57.23960937 42.8125 57.23828125 44.140625 C57.24037598 44.80642578 57.2424707 45.47222656 57.24462891 46.15820312 C57.24994851 48.16804685 57.24468514 50.17766345 57.23828125 52.1875 C57.2453988 59.33352088 57.45464035 66.34716664 58.375 73.4375 C67.38827427 63.47546001 82.71978633 46.43524657 83.375 32.4375 C81.7290349 30.75038577 80.06262851 29.0829378 78.375 27.4375 C78.5625 24.625 78.5625 24.625 79.375 22.4375 C85.49701402 21.06518276 89.8798329 22.04404794 95.8125 23.875 C96.63943359 24.11798828 97.46636719 24.36097656 98.31835938 24.61132812 C100.34095665 25.20758513 102.35853447 25.8208243 104.375 26.4375 C104.375 28.4175 104.375 30.3975 104.375 32.4375 C103.34375 32.85 102.3125 33.2625 101.25 33.6875 C96.53299748 36.36804561 95.08420031 40.45468984 92.890625 45.234375 C90.50669291 50.27258199 87.44450277 54.79670414 84.375 59.4375 C83.61322596 60.63715999 82.85288525 61.83773097 82.09375 63.0390625 C74.8192565 74.4170416 64.77668188 89.58765006 52.375 95.4375 C47.48301029 95.39098346 43.62573862 94.50062782 39.875 91.3125 C35.99964544 83.88473709 35.82335923 75.64311647 35.25 67.4375 C35.16363281 66.28121094 35.07726562 65.12492187 34.98828125 63.93359375 C34.77766364 61.10195695 34.57340359 58.27001434 34.375 55.4375 C33.76914062 56.32050781 33.16328125 57.20351562 32.5390625 58.11328125 C18.10501675 78.8920264 18.10501675 78.8920264 8.375 84.4375 C5.15451373 84.95573917 2.45175439 84.49903703 -0.625 83.4375 C-5.243529 79.40857045 -6.54046841 75.4209852 -7.625 69.4375 C-7.80370517 66.73652304 -7.90621945 64.14511833 -7.890625 61.44921875 C-7.89326355 60.71202606 -7.8959021 59.97483337 -7.89862061 59.21530151 C-7.90241288 56.85168939 -7.88987555 54.48856283 -7.875 52.125 C-7.87322754 51.32158173 -7.87145508 50.51816345 -7.86962891 49.69039917 C-7.84181422 38.98722884 -7.52740745 28.43437864 -6.0625 17.81640625 C-5.69157668 14.951686 -5.40766685 12.31583905 -5.625 9.4375 C-6.140625 8.9425 -6.65625 8.4475 -7.1875 7.9375 C-7.661875 7.4425 -8.13625 6.9475 -8.625 6.4375 C-8.5 3.875 -8.5 3.875 -7.625 1.4375 C-4.1931164 -0.8504224 -3.83347935 -0.75364068 0 0 Z " fill="#151515" transform="translate(315.625,1364.5625)"/>
<path d="M0 0 C1.62808594 0.05317383 1.62808594 0.05317383 3.2890625 0.10742188 C13.72891747 0.53497095 13.72891747 0.53497095 18.25 2.6875 C19.125 4.8125 19.125 4.8125 19.25 6.6875 C18.05117188 7.36425781 18.05117188 7.36425781 16.828125 8.0546875 C13.04476214 11.91830351 13.28124779 15.57981084 13 20.8125 C12.87269913 22.6278104 12.74262634 24.44292919 12.609375 26.2578125 C12.56264648 27.05977051 12.51591797 27.86172852 12.46777344 28.68798828 C12.25 30.6875 12.25 30.6875 11.25 32.6875 C12.7040625 32.67009766 12.7040625 32.67009766 14.1875 32.65234375 C39.52301589 32.44517196 39.52301589 32.44517196 46.25 34.6875 C46.23839844 33.86507813 46.22679687 33.04265625 46.21484375 32.1953125 C46.15898042 25.28422029 46.38305966 18.54561735 47.25 11.6875 C46.28707031 11.254375 46.28707031 11.254375 45.3046875 10.8125 C43.25 9.6875 43.25 9.6875 42.375 7.6875 C42.33375 7.0275 42.2925 6.3675 42.25 5.6875 C44.25 3.6875 44.25 3.6875 47.26953125 3.45703125 C71.20962981 3.72823731 71.20962981 3.72823731 76.25 6.6875 C75.84767034 9.50380759 75.44162542 10.51846725 73.26416016 12.43920898 C70.68318503 15.32020292 70.59172205 17.08433135 70.2734375 20.91015625 C70.1607251 22.15893555 70.0480127 23.40771484 69.93188477 24.69433594 C69.82868539 26.04615522 69.72641068 27.39804536 69.625 28.75 C69.51023547 30.13454029 69.39425506 31.51898029 69.27709961 32.90332031 C69.03910749 35.74947657 68.81240799 38.59625732 68.59228516 41.44384766 C68.27253646 45.51387318 67.8811045 49.57385476 67.48046875 53.63671875 C67.25665223 56.07020606 67.03394263 58.50379552 66.8125 60.9375 C66.63630127 62.64885132 66.63630127 62.64885132 66.45654297 64.39477539 C66.32530029 65.97053345 66.32530029 65.97053345 66.19140625 67.578125 C66.10576416 68.49625977 66.02012207 69.41439453 65.93188477 70.36035156 C66.00773171 72.86341371 66.00773171 72.86341371 68.23413086 74.34277344 C69.23198608 75.00841309 69.23198608 75.00841309 70.25 75.6875 C70.5625 78.3125 70.5625 78.3125 70.25 80.6875 C68.54409767 82.39340233 66.40564191 81.81936164 64.1315918 81.82666016 C63.07645386 81.81965088 63.07645386 81.81965088 62 81.8125 C60.92649292 81.80742432 60.92649292 81.80742432 59.83129883 81.80224609 C41.66230311 81.6290354 41.66230311 81.6290354 37.25 78.6875 C37.5625 76.3125 37.5625 76.3125 38.25 73.6875 C39.24 73.0275 40.23 72.3675 41.25 71.6875 C42.22157545 68.77277365 42.53253958 66.41152243 42.78515625 63.36328125 C42.91567383 61.82124023 42.91567383 61.82124023 43.04882812 60.24804688 C43.13583984 59.17619141 43.22285156 58.10433594 43.3125 57 C43.40337891 55.91654297 43.49425781 54.83308594 43.58789062 53.71679688 C43.81188773 51.04062093 44.0324562 48.36420699 44.25 45.6875 C40.30348203 44.79928944 36.45229446 44.41892915 32.41796875 44.15234375 C31.12568359 44.06533203 29.83339844 43.97832031 28.50195312 43.88867188 C27.14714006 43.80070976 25.79232229 43.71282004 24.4375 43.625 C23.06313092 43.53350494 21.68878168 43.44171115 20.31445312 43.34960938 C16.95981903 43.1259671 13.60501282 42.90537445 10.25 42.6875 C10.25580078 43.45223633 10.26160156 44.21697266 10.26757812 45.00488281 C10.29447091 51.17293521 10.19282888 57.28576902 9.75 63.4375 C9.67845703 64.50097656 9.67845703 64.50097656 9.60546875 65.5859375 C9.49055213 67.28670352 9.37083745 68.98714439 9.25 70.6875 C10.57 71.3475 11.89 72.0075 13.25 72.6875 C12.92 74.3375 12.59 75.9875 12.25 77.6875 C8.0944604 78.50955985 4.44810365 78.72813956 0.23046875 78.3828125 C-1.4256543 78.24939453 -1.4256543 78.24939453 -3.11523438 78.11328125 C-4.25283203 78.01402344 -5.39042969 77.91476562 -6.5625 77.8125 C-8.29790039 77.67521484 -8.29790039 77.67521484 -10.06835938 77.53515625 C-18.61498038 76.82251962 -18.61498038 76.82251962 -19.75 75.6875 C-19.79063832 74.02132885 -19.792721 72.35361905 -19.75 70.6875 C-17.275 69.6975 -17.275 69.6975 -14.75 68.6875 C-14.17462687 61.75029929 -13.60566504 54.81259345 -13.04101562 47.87451172 C-12.8484582 45.51762173 -12.6544698 43.16084816 -12.45898438 40.80419922 C-12.17716061 37.4036217 -11.90060073 34.00264935 -11.625 30.6015625 C-11.53750488 29.55948639 -11.45000977 28.51741028 -11.35986328 27.4437561 C-11.12626834 24.52602249 -10.92686894 21.60918539 -10.75 18.6875 C-10.68586914 17.74412781 -10.62173828 16.80075562 -10.55566406 15.82879639 C-10.51924805 14.93831604 -10.48283203 14.04783569 -10.4453125 13.13037109 C-10.40680176 12.34455658 -10.36829102 11.55874207 -10.32861328 10.74911499 C-10.57656451 8.47998497 -10.57656451 8.47998497 -12.76904297 6.90982056 C-13.42275879 6.50645477 -14.07647461 6.10308899 -14.75 5.6875 C-14.375 3.25 -14.375 3.25 -13.75 0.6875 C-9.70462063 -1.33518969 -4.4276411 -0.18923759 0 0 Z " fill="#141414" transform="translate(442.75,1391.3125)"/>
<path d="M0 0 C1.0625 1.625 1.0625 1.625 2 4 C1.80019531 4.94230469 1.60039063 5.88460938 1.39453125 6.85546875 C0.91866826 10.64823809 1.47278602 11.60197995 3.625 14.6875 C4.26695312 15.62980469 4.90890625 16.57210938 5.5703125 17.54296875 C5.94704102 18.07841309 6.32376953 18.61385742 6.71191406 19.16552734 C8.76618245 22.09118554 10.77403959 25.04847559 12.79052734 28.00024414 C13.93172497 29.66901342 15.07528833 31.33616731 16.22119141 33.00170898 C19.22574508 37.37272079 22.17326431 41.7619372 25 46.25 C25.52722656 47.08015625 26.05445313 47.9103125 26.59765625 48.765625 C27.49914844 50.20198582 28.38356034 51.64928709 29.24609375 53.109375 C32.48063363 58.24221861 35.48921429 59.16307143 41 61 C41.33 61.99 41.66 62.98 42 64 C38.15000842 68.29191668 34.29886514 70.70694597 29.125 73.1875 C28.44308594 73.52974609 27.76117187 73.87199219 27.05859375 74.22460938 C22.78819784 76.31913689 18.67621084 78.06360889 14 79 C12.515 78.01 12.515 78.01 11 77 C11.28875 75.88625 11.5775 74.7725 11.875 73.625 C12.60503968 67.59423742 9.30792066 63.7682963 6 59 C4.5410838 56.79205169 3.08275291 54.58371652 1.625 52.375 C0.41897819 50.58177656 -0.78852284 48.7895424 -2 47 C-5.0007008 48.41518558 -8.00042767 49.83242433 -11 51.25 C-11.83917969 51.64574219 -12.67835938 52.04148437 -13.54296875 52.44921875 C-17.55730888 54.34747261 -21.54833379 56.27102081 -25.5 58.296875 C-29 60 -29 60 -31 60 C-27.15226886 66.92591605 -23.15168018 73.94373735 -18.28515625 80.20703125 C-17 82 -17 82 -17 84 C-15.88625 84.12375 -14.7725 84.2475 -13.625 84.375 C-10 85 -10 85 -8 87 C-8.0390625 88.91015625 -8.0390625 88.91015625 -9 91 C-16.35183623 96.49543611 -27.54982954 103.55788126 -37 103 C-37.53164568 99.88607532 -38.00338399 96.91201619 -38.125 93.75 C-39.41549619 88.21930203 -42.65505442 84.50981962 -46 80 C-47.24152431 78.17501255 -48.47019814 76.34123273 -49.6875 74.5 C-50.34621094 73.50742188 -51.00492188 72.51484375 -51.68359375 71.4921875 C-52.04437012 70.94788086 -52.40514648 70.40357422 -52.77685547 69.84277344 C-55.26158581 66.09931143 -57.75692499 62.36290726 -60.25 58.625 C-61.25524516 57.11721205 -62.26045499 55.60940055 -63.265625 54.1015625 C-63.73516602 53.40272949 -64.20470703 52.70389648 -64.68847656 51.98388672 C-65.51857992 50.72822405 -66.33042553 49.46013152 -67.11621094 48.17626953 C-69.20064063 44.80950193 -69.84674329 44.05619413 -73.75 42.625 C-74.8225 42.41875 -75.895 42.2125 -77 42 C-77.33 40.35 -77.66 38.7 -78 37 C-72.24826193 33.30535413 -66.31993172 30.01238297 -60.1875 27 C-59.23701782 26.50971313 -59.23701782 26.50971313 -58.26733398 26.00952148 C-55.0955297 24.49249879 -53.49949308 23.86239131 -50.05078125 24.8125 C-49.37402344 25.204375 -48.69726562 25.59625 -48 26 C-48.38091797 27.75376953 -48.38091797 27.75376953 -48.76953125 29.54296875 C-49.40081683 34.61448243 -47.60472595 37.31611978 -44.6875 41.3125 C-44.27048828 41.91900391 -43.85347656 42.52550781 -43.42382812 43.15039062 C-42.30026512 44.77928819 -41.15132209 46.39060304 -40 48 C-39.34 48.99 -38.68 49.98 -38 51 C-33.56953874 49.34287011 -29.447797 47.22260814 -25.25 45.0625 C-19.60076446 42.1888706 -14.11400909 39.74685974 -8 38 C-9.69957575 35.29145421 -11.41024383 32.59135608 -13.140625 29.90234375 C-14.21693381 28.2223071 -15.27801736 26.53189246 -16.296875 24.81640625 C-18.53247051 21.25629696 -20.34972472 19.62182865 -24.25 18.3125 C-28 17 -28 17 -28.921875 15.10546875 C-29 13 -29 13 -27.73095703 11.49169922 C-26.00150487 10.00129686 -24.42583732 9.03352687 -22.3828125 8.02734375 C-21.69316406 7.68509766 -21.00351562 7.34285156 -20.29296875 6.99023438 C-19.57753906 6.64283203 -18.86210938 6.29542969 -18.125 5.9375 C-17.41730469 5.58623047 -16.70960938 5.23496094 -15.98046875 4.87304688 C-5.45421995 -0.31166971 -5.45421995 -0.31166971 0 0 Z " fill="#141414" transform="translate(817,1313)"/>
<path d="M0 0 C6.5024952 0.36470811 10.06708037 5.44709635 14.375 9.8125 C15.21933594 10.63298828 16.06367188 11.45347656 16.93359375 12.29882812 C18.12275391 13.49088867 18.12275391 13.49088867 19.3359375 14.70703125 C20.06345215 15.4338208 20.7909668 16.16061035 21.54052734 16.90942383 C23 19 23 19 22.72900391 21.26831055 C22.36814697 22.12549683 22.36814697 22.12549683 22 23 C20.948125 23.12375 19.89625 23.2475 18.8125 23.375 C11.96914002 24.49686229 7.61666347 27.53104707 2.1875 31.625 C1.49462891 32.140625 0.80175781 32.65625 0.08789062 33.1875 C-1.61173663 34.45342926 -3.30637435 35.72605265 -5 37 C-0.61557474 42.25174926 4.00842093 47.13222473 8.875 51.9375 C9.56335938 52.62134766 10.25171875 53.30519531 10.9609375 54.00976562 C12.63833511 55.67551464 14.31803791 57.3388622 16 59 C20.44720957 56.55979253 24.39322026 54.06129643 28.3125 50.8125 C32.82588235 47.08705882 32.82588235 47.08705882 35 46 C34.95875 45.05125 34.9175 44.1025 34.875 43.125 C35 40 35 40 37 38 C39.25 37.5625 39.25 37.5625 42 38 C46.10971034 40.93550739 48.85021109 44.06276387 52 48 C53.0234785 48.89620656 54.06620638 49.77080418 55.125 50.625 C58 53 58 53 60 56 C59.625 58.6875 59.625 58.6875 59 61 C58.39414063 60.979375 57.78828125 60.95875 57.1640625 60.9375 C48.95134133 61.13965929 44.94424772 64.68502932 39 70 C37.51442592 71.18498133 36.01562543 72.35370568 34.5 73.5 C33.8709375 73.9846875 33.241875 74.469375 32.59375 74.96875 C31 76 31 76 29 76 C29 76.66 29 77.32 29 78 C27.62890625 79.05078125 27.62890625 79.05078125 25.5625 80.3125 C19.68396393 84.07137162 14.24589795 88.37180082 8.76586914 92.6809082 C8.05035889 93.23738037 7.33484863 93.79385254 6.59765625 94.3671875 C5.95320557 94.87362793 5.30875488 95.38006836 4.64477539 95.90185547 C3 97 3 97 1 97 C0.814375 98.918125 0.814375 98.918125 0.625 100.875 C0.25 104.75 0.25 104.75 -2 107 C-5.20633344 107.49212714 -6.5595745 107.30985603 -9.23583984 105.42700195 C-11.63180471 103.07020746 -14.01982889 100.7101899 -16.375 98.3125 C-17.64150391 97.08756836 -17.64150391 97.08756836 -18.93359375 95.83789062 C-19.72636719 95.04189453 -20.51914063 94.24589844 -21.3359375 93.42578125 C-22.06345215 92.69786377 -22.7909668 91.96994629 -23.54052734 91.2199707 C-25 89 -25 89 -24.72900391 86.22338867 C-24.36814697 85.12281128 -24.36814697 85.12281128 -24 84 C-21.29669772 83.44343777 -18.60087431 82.93613989 -15.875 82.5 C-12.94214853 82.06349551 -12.94214853 82.06349551 -10 81 C-10 80.34 -10 79.68 -10 79 C-8.05859375 77.44921875 -8.05859375 77.44921875 -5.4375 75.6875 C-4.53128906 75.07132813 -3.62507813 74.45515625 -2.69140625 73.8203125 C-1.80324219 73.21960937 -0.91507813 72.61890625 0 72 C1.37865045 71.02597982 2.75426474 70.04762801 4.125 69.0625 C5.07375 68.381875 6.0225 67.70125 7 67 C2.61557474 61.74825074 -2.00842093 56.86777527 -6.875 52.0625 C-7.56335938 51.37865234 -8.25171875 50.69480469 -8.9609375 49.99023438 C-10.63833511 48.32448536 -12.31803791 46.6611378 -14 45 C-18.43973442 47.5369911 -22.51404173 50.47298581 -26.625 53.5 C-27.29273438 53.98597656 -27.96046875 54.47195313 -28.6484375 54.97265625 C-29.29296875 55.44574219 -29.9375 55.91882812 -30.6015625 56.40625 C-31.18244629 56.83228516 -31.76333008 57.25832031 -32.36181641 57.69726562 C-36.14032864 60.59549656 -36.14032864 60.59549656 -37.375 65.0625 C-37.684375 66.5165625 -37.684375 66.5165625 -38 68 C-40.5625 69.375 -40.5625 69.375 -43 70 C-43.50789063 69.55269531 -44.01578125 69.10539062 -44.5390625 68.64453125 C-45.57160156 67.73767578 -45.57160156 67.73767578 -46.625 66.8125 C-47.3571875 66.16925781 -48.089375 65.52601562 -48.84375 64.86328125 C-50.57687094 63.3656387 -52.33296221 61.92505133 -54.125 60.5 C-60.95039876 54.56487065 -60.95039876 54.56487065 -63 51 C-62.72539391 48.868902 -62.53686489 47.53686489 -61 46 C-59.948125 46.020625 -58.89625 46.04125 -57.8125 46.0625 C-54.06921651 46.0011347 -51.45993222 45.35021745 -48 44 C-48 43.34 -48 42.68 -48 42 C-46.26953125 40.625 -46.26953125 40.625 -43.8125 39 C-38.33393638 35.27989118 -33.11102795 31.29262325 -27.8828125 27.234375 C-26.93148437 26.49703125 -25.98015625 25.7596875 -25 25 C-24.25492188 24.40703125 -23.50984375 23.8140625 -22.7421875 23.203125 C-21 22 -21 22 -19 22 C-19 21.34 -19 20.68 -19 20 C-17.20703125 18.6328125 -17.20703125 18.6328125 -14.8125 17.125 C-11.37334334 14.91334108 -8.16742563 12.59153006 -5 10 C-4.34 9.67 -3.68 9.34 -3 9 C-2.66073053 6.66752239 -2.32759934 4.33414529 -2 2 C-1.34 1.34 -0.68 0.68 0 0 Z " fill="#131313" transform="translate(114,1247)"/>
<path d="M0 0 C8.30689771 6.01248004 15.60960421 12.50560509 18.34765625 22.69921875 C19.73614678 34.02898078 19.1556149 44.20101838 12.34765625 53.69921875 C11.66703125 54.653125 10.98640625 55.60703125 10.28515625 56.58984375 C2.40632687 66.33190981 -9.31303855 72.55712503 -21.65234375 74.69921875 C-38.33993191 75.97649935 -50.90581787 71.97909556 -64.02734375 61.38671875 C-70.56130356 55.34280593 -75.13876357 47.07389505 -75.98828125 38.18359375 C-76.1155362 26.01802072 -73.61530147 17.89019886 -65.65234375 8.69921875 C-65.12769531 8.09207031 -64.60304688 7.48492188 -64.0625 6.859375 C-47.27510633 -11.19201066 -20.31258207 -13.11234972 0 0 Z M-57.08984375 13.19921875 C-60.42893013 18.54175696 -61.59931648 22.38606719 -60.65234375 28.69921875 C-56.19834843 41.74306219 -44.73400953 49.90210152 -32.953125 56.125 C-25.13062502 59.68068181 -16.80753533 61.39649749 -8.30078125 59.05078125 C-3.2846641 56.78481327 0.29601755 53.25027853 3.34765625 48.69921875 C4.96913139 43.83479333 5.00351636 39.58726373 2.91015625 34.88671875 C-3.84869311 22.74885433 -16.22694072 12.4867358 -29.40234375 8.07421875 C-39.52898001 5.49340126 -49.33382411 5.24432681 -57.08984375 13.19921875 Z " fill="#151515" transform="translate(915.65234375,1269.30078125)"/>
<path d="M0 0 C2.625 1.875 2.625 1.875 5 5 C5.556875 5.63550781 6.11375 6.27101563 6.6875 6.92578125 C18.25876693 20.43336906 27.4820547 37.4285311 35.16015625 53.44921875 C35.51182861 54.17931152 35.86350098 54.9094043 36.22583008 55.66162109 C36.88936566 57.05512491 37.53984553 58.45495138 38.17456055 59.86181641 C40.16294652 64.05993799 41.94337129 65.83646469 46 68 C46.3125 70.6875 46.3125 70.6875 46 73 C41.19187184 75.37907381 36.32299678 75.65757057 31.0625 76.125 C30.18142578 76.21136719 29.30035156 76.29773437 28.39257812 76.38671875 C15.85505352 77.57003568 15.85505352 77.57003568 12 75 C12.75 70.25 12.75 70.25 15 68 C14.69797757 63.01662989 12.08728962 58.45612062 10 54 C-0.3402284 54.58836651 -10.6708022 55.23890121 -21 56 C-21.33 60.95 -21.66 65.9 -22 71 C-20.35 71.99 -18.7 72.98 -17 74 C-16.6875 76.6875 -16.6875 76.6875 -17 79 C-34.63128492 83.40782123 -34.63128492 83.40782123 -40.35546875 81.015625 C-40.89816406 80.68046875 -41.44085937 80.3453125 -42 80 C-41.36968861 75.33569571 -41.36968861 75.33569571 -39.5715332 73.70288086 C-37.40412463 71.35432178 -36.97656491 69.14815128 -36.16796875 66.06640625 C-35.68710815 64.2709436 -35.68710815 64.2709436 -35.1965332 62.43920898 C-34.94959213 61.4899202 -34.94959213 61.4899202 -34.69766235 60.52145386 C-34.01050098 57.88284789 -33.2996787 55.2508163 -32.58982849 52.61824036 C-32.23293683 51.29413577 -31.8771126 49.96974302 -31.52235413 48.64506531 C-17.69355955 -2.95375299 -17.69355955 -2.95375299 0 0 Z M-10 20 C-13.19032326 28.34111235 -15.68161745 36.13088102 -17 45 C-10.07 44.34 -3.14 43.68 4 43 C1.95608741 38.23087063 0.26648437 34.58539507 -2.5 30.375 C-4.2731319 27.6608639 -6.02102709 24.96399607 -7.65625 22.1640625 C-8.32140625 21.09285156 -8.32140625 21.09285156 -9 20 C-9.33 20 -9.66 20 -10 20 Z " fill="#161616" transform="translate(568,1390)"/>
<path d="M0 0 C5.6827015 0.24646165 9.73050435 2.08739294 14.5625 4.8125 C15.19607422 5.15603516 15.82964844 5.49957031 16.48242188 5.85351562 C27.40796092 11.85074766 27.40796092 11.85074766 29.0625 15.0625 C29 17 29 17 27.9375 18.6875 C25.3858416 20.41604279 23.01874178 20.56172948 20 21 C19.97062562 24.33331439 19.95307666 27.66659483 19.9375 31 C19.92493164 32.40185547 19.92493164 32.40185547 19.91210938 33.83203125 C19.89291108 39.32274401 20.1865807 44.56866481 21 50 C25.12834182 48.38340013 29.25205686 46.75531412 33.375 45.125 C34.550625 44.66480469 35.72625 44.20460938 36.9375 43.73046875 C38.05898437 43.28574219 39.18046875 42.84101562 40.3359375 42.3828125 C41.37282715 41.97434082 42.4097168 41.56586914 43.47802734 41.14501953 C46.10282016 40.13153534 46.10282016 40.13153534 48 38 C48.02375926 36.0068433 48.02375926 36.0068433 47.625 33.875 C47.315625 31.956875 47.315625 31.956875 47 30 C48.625 28.375 48.625 28.375 51 27 C58.5659529 28.29174806 66.84754134 33.4121223 72 39 C71.29296875 41.4140625 71.29296875 41.4140625 70 44 C67.92578125 44.8984375 67.92578125 44.8984375 65.3125 45.375 C60.49437779 46.4854266 56.23832889 48.14681681 51.8125 50.3125 C42.54358158 54.79730666 32.82299171 59.29746297 22.625 61.0625 C21.42875 61.371875 20.2325 61.68125 19 62 C18.27148317 63.64057473 17.61305997 65.31287828 17 67 C15.88671878 68.58064928 14.71779671 70.12339473 13.5 71.625 C9.49292486 76.03079408 9.49292486 76.03079408 8.0234375 81.48046875 C8.13945312 82.37378906 8.25546875 83.26710938 8.375 84.1875 C8.48585937 85.08855469 8.59671875 85.98960938 8.7109375 86.91796875 C8.80632812 87.60503906 8.90171875 88.29210938 9 89 C6 91 6 91 3.4375 91 C-1.59770285 89.53521372 -5.59821582 86.80113539 -10 84 C-11.77707396 82.90172902 -13.5581431 81.81013926 -15.33959961 80.71899414 C-17.89681744 79.15207316 -20.44826849 77.57583419 -23 76 C-22.6875 73.625 -22.6875 73.625 -22 71 C-19 69 -19 69 -15.6875 68.875 C-10.32726505 67.60307984 -8.91330542 64.40510525 -6 60 C-5.31655518 59.37730225 -4.63311035 58.75460449 -3.92895508 58.11303711 C-0.92634378 53.26728383 -1.54638544 48.57023659 -1.6796875 42.98828125 C-1.69009064 41.82370895 -1.70049377 40.65913666 -1.71121216 39.45927429 C-1.74681407 35.74317329 -1.80917624 32.02817901 -1.875 28.3125 C-1.93017573 24.58621887 -1.97957011 20.86008961 -2.0173645 17.1335907 C-2.04194387 14.81526209 -2.07721442 12.49701831 -2.12399292 10.17903137 C-2.13705475 9.13422104 -2.15011658 8.08941071 -2.16357422 7.01293945 C-2.18008026 6.09092239 -2.1965863 5.16890533 -2.21359253 4.21894836 C-2 2 -2 2 0 0 Z " fill="#161616" transform="translate(181,1309)"/>
<path d="M0 0 C2.125 2 2.125 2 4 5 C4.45761719 5.639375 4.91523437 6.27875 5.38671875 6.9375 C9.04789573 12.23366834 9.04789573 12.23366834 8.8125 16 C8.544375 16.66 8.27625 17.32 8 18 C4.95941529 18.91326915 3.42646347 19.16476998 0.421875 18.00390625 C-0.45984375 17.52824219 -1.3415625 17.05257813 -2.25 16.5625 C-7.57207921 13.96267511 -11.12636629 13.44060631 -17 14 C-17.66 14.33 -18.32 14.66 -19 15 C-17.08385457 20.9421952 -15.16311766 26.88287997 -13.23828125 32.82226562 C-12.58535255 34.83911851 -11.93363695 36.85636457 -11.28320312 38.87402344 C-10.34310597 41.7894781 -9.39852153 44.70344757 -8.453125 47.6171875 C-8.16753723 48.50614716 -7.88194946 49.39510681 -7.58770752 50.31100464 C-5.85482297 55.63450425 -3.91839669 60.81843031 -1.75360107 65.98220825 C-1 68 -1 68 -1 70 C-0.236875 70.103125 0.52625 70.20625 1.3125 70.3125 C4.17059424 71.04364039 5.15742885 71.76951913 7 74 C6.35449219 75.87768555 6.35449219 75.87768555 5 78 C2.48144531 79.11254883 2.48144531 79.11254883 -0.671875 79.95703125 C-1.81140625 80.26447266 -2.9509375 80.57191406 -4.125 80.88867188 C-5.32125 81.19353516 -6.5175 81.49839844 -7.75 81.8125 C-8.93078125 82.13669922 -10.1115625 82.46089844 -11.328125 82.79492188 C-17.02232165 84.29221345 -21.16048769 85.29833643 -27 84 C-27.625 82.1875 -27.625 82.1875 -28 80 C-27.01 78.515 -27.01 78.515 -26 77 C-25.34 77 -24.68 77 -24 77 C-26.56306676 68.06981892 -29.21978554 59.18081462 -32.11328125 50.3515625 C-32.50626907 49.15234161 -32.50626907 49.15234161 -32.90719604 47.92889404 C-33.98377412 44.65160015 -35.06416798 41.37558553 -36.14770508 38.10058594 C-36.95251409 35.66463743 -37.75196116 33.22698029 -38.55078125 30.7890625 C-38.79758133 30.04854645 -39.04438141 29.3080304 -39.29866028 28.54507446 C-40.26872607 25.57714001 -41 23.14433127 -41 20 C-47.96572702 21.62533631 -52.04520689 23.97056133 -56 30 C-56.30808594 30.71800781 -56.61617187 31.43601562 -56.93359375 32.17578125 C-57.28550781 32.77777344 -57.63742187 33.37976562 -58 34 C-61.625 34.75 -61.625 34.75 -65 35 C-67.35284294 31.47073558 -67.54557153 29.25921723 -67.9375 25.0625 C-68.07027344 23.83660156 -68.20304688 22.61070313 -68.33984375 21.34765625 C-68 18 -68 18 -65.82858276 15.8994751 C-62.9443139 13.96260517 -60.75533034 13.09598197 -57.40283203 12.26074219 C-55.75554611 11.84075958 -55.75554611 11.84075958 -54.07498169 11.41229248 C-52.89781586 11.12670471 -51.72065002 10.84111694 -50.5078125 10.546875 C-49.28851044 10.24179016 -48.06920837 9.93670532 -46.81295776 9.62237549 C-44.23712791 8.98092546 -41.66066958 8.34459813 -39.08154297 7.71679688 C-35.79074667 6.91533858 -32.50494814 6.09527594 -29.22033882 5.26887131 C-26.0683142 4.47782742 -22.91299362 3.70021702 -19.7578125 2.921875 C-18.58469513 2.62819031 -17.41157776 2.33450562 -16.20291138 2.03192139 C-5.39269255 -0.58505189 -5.39269255 -0.58505189 0 0 Z " fill="#171717" transform="translate(667,1371)"/>
<path d="M0 0 C0.99 0.33 1.98 0.66 3 1 C2.06027344 1.90492187 2.06027344 1.90492187 1.1015625 2.828125 C0.28429688 3.62734375 -0.53296875 4.4265625 -1.375 5.25 C-2.18710937 6.03890625 -2.99921875 6.8278125 -3.8359375 7.640625 C-5.75583143 9.73379455 -6.91633685 11.40397179 -8 14 C-8.5 11.5 -8.5 11.5 -8 8 C-5.58622266 5.04629878 -2.86095001 2.51610335 0 0 Z " fill="#5E5E5E" transform="translate(21,1230)"/>
<path d="M0 0 C0 3 0 3 -1.49609375 4.578125 C-2.45708984 5.40570312 -2.45708984 5.40570312 -3.4375 6.25 C-6.06326656 8.73283169 -7.46707628 10.31376729 -7.9375 13.9375 C-7.958125 14.948125 -7.97875 15.95875 -8 17 C-8.33 17 -8.66 17 -9 17 C-9.59408342 13.8315551 -9.74320069 11.15253103 -9 8 C-6.34782319 4.8515094 -3.32007147 2.41759172 0 0 Z " fill="#686868" transform="translate(9,1191)"/>
<path d="M0 0 C0.8125 1.625 0.8125 1.625 1 4 C-0.46818136 6.24609835 -2.15852858 8.02378677 -4 10 C-4.33 8.68 -4.66 7.36 -5 6 C-4.360625 5.566875 -3.72125 5.13375 -3.0625 4.6875 C-0.73253997 3.08760823 -0.73253997 3.08760823 0 0 Z " fill="#7F7F7F" transform="translate(485,1460)"/>
</svg>
